<svg xmlns="http://www.w3.org/2000/svg" viewBox="0 0 304.13 301.81"><defs><style>.a{fill:#4f4841;}.b{fill:#fff;}.c{fill:#eb814e;}</style></defs><title>logo</title><path class="a" d="M299,91.81a234.9,234.9,0,0,1-2.68,31.82c-.51,3,.45,6.31.26,9.44-.84,14.06,2.36,27.44,5.23,41.11,8.22,39.22-5.94,70.6-39.39,91-30.17,18.43-62.37,33.68-98.77,36.19-28.68,2-55.95-3.58-81.84-15.9-7.2-3.43-14.44-6.73-21.73-10C33.7,263.81,13,246.22,3.78,217.73c-6.48-20-4-39.79,2.52-59.29,1.13-3.4,2-6.65,1.2-10.2a3.32,3.32,0,0,1-.08-1C9,128.57,5.36,110.1,5.21,91.5,5,70.58,6.88,49.93,15,30.34,19.66,19.22,26.4,9.73,36.14,2.4A11.24,11.24,0,0,1,45.39.23a109.6,109.6,0,0,1,46.2,18.9,9.3,9.3,0,0,0,7.79,1.64,290.54,290.54,0,0,1,105.27,0A9.86,9.86,0,0,0,212.89,19,108.9,108.9,0,0,1,259.12.18a10.78,10.78,0,0,1,8.78,2.14c15.79,11.73,23,28.41,27.17,46.82C298.05,62.35,299.08,75.78,299,91.81Zm-256.9,159-.06-.07c.32,2.34,2.11,2.83,4,3.17a39,39,0,0,1,3.26,2.23C59.9,265,73.24,268.33,85.22,274.25c44,21.69,88.51,21.73,132.9.67,4.78-2.27,9-5.66,14.16-7.2,9.52-2.85,17.77-8.06,25.76-13.77,1.78.57,2.09-.76,2.51-1.94l1.3-1.1c1.58.07,2.58-.48,2.41-2.27l.68-.67c2.46.64,3.61-1.34,5-2.66,19.66-19.11,26.57-42.47,20.47-68.82-3.39-14.65-6.07-29.06-5.27-44.08.19-3.63-.61-7.26,0-10.93A189.48,189.48,0,0,0,284.91,56c-2.75-15.26-7.72-29.58-19.13-40.89a10,10,0,0,0-10.37-2.83c-20,4.9-37.47,14.07-51.76,29.05-1.3,1.37-2.22,3.41-4.54,3.53l0,0c1.54-4.73,5.56-7.69,8.62-11.73-1.93-.51-3.5-1-5.11-1.33-28.69-5.5-57.54-5.17-86.45-2.34-5.44.53-10.83,1.66-16.23,2.62-1.22.22-3,.21-3.28,1.71s1.4,1.56,2.18,2.31c2.63,2.52,5.14,5.17,6.31,8.76h0c-2.2,0-3-1.94-4.18-3.16a105.73,105.73,0,0,0-51.8-29.36c-4.6-1.08-7.92-.15-11.18,3.21A58.44,58.44,0,0,0,25.3,35.11c-9.8,25-9.84,51-7.69,77.2,1.63,19.78,2.77,39.29-2.72,59-7.92,28.45-1.65,54,20.3,74.83,1.34,1.28,2.42,3.4,4.93,2.69l-.08-.07C39.79,250.45,40.67,250.94,42.14,250.83Z"/><path class="b" d="M264.94,248l-.68.66a2.91,2.91,0,0,0-2.41,2.27l-1.3,1.11A2.47,2.47,0,0,0,258,254c-8,5.71-16.24,10.92-25.76,13.77-5.15,1.54-9.38,4.93-14.16,7.2-44.39,21.06-88.94,21-132.9-.67-12-5.92-25.32-9.3-35.87-18.09a39,39,0,0,0-3.26-2.23,5.37,5.37,0,0,0-4-3.17l.06.07a2.11,2.11,0,0,0-2.1-2l.08.07a6.72,6.72,0,0,0-.95-1.66c-14-13.55-21.79-30-22.37-49.56a85.49,85.49,0,0,1,4.51-30.09c3.15,7.81,6.12,14.67,11.35,20.18.87.92,1.68,2.41,3.21,1.88,1.21-.42,1.17-1.89,1.39-3a49.3,49.3,0,0,1,8.28-19.1C48,164,50.84,160.79,53.85,157l-6.8-.31.07.06c9.06-7,18.95-11.76,30.77-10.94,11.32.79,17.38,10.9,12.55,21.11-1.59,3.37-3.87,6.42-5.86,9.64a5.29,5.29,0,0,0,4.07-.09c11.77-3.86,21.34-11.31,30.72-19.12,1,1.95-1.42,3.71.51,5.56a35.18,35.18,0,0,0,11.41-14.17c1.83-4,.51-6.4-3.6-7.47a29,29,0,0,1-8.24-3.49c-6.27-4-9.29-10.46-8-17a16,16,0,0,1,13.2-12.67c6.74-1,12.73,2.22,16.42,8.88,1.14,2.06,2.27,4.06,4.25,5.46,6.45,4.58,13.22,2.5,17.69-5.46,3.73-6.64,9.73-9.89,16.43-8.88a15.92,15.92,0,0,1,13.08,12.18c1.56,6.57-1.21,13-7.39,17.21a30.59,30.59,0,0,1-9.14,3.9c-2.48.68-4.58,2.14-3.82,4.92,1.93,7.07,6.48,12.27,12.24,16.82,1.41-2.33-.54-3.85.3-5.7,5.51,4.06,10.62,8.58,16.42,12.16,8.47,5.21,14.37,7.42,18.41,6.55-1.59-2.34-3.35-4.56-4.73-7-6.85-12-.4-23.27,13.45-23.45,11-.15,20.29,4.43,28.77,11l.07-.07-7,.32c4.16,4.86,8,9.14,10.9,14.17A53.72,53.72,0,0,1,267.24,188c.4,2.11,1.72,2.31,3.18.87,1.18-1.16,2.24-2.44,3.31-3.71,4.14-4.88,6.16-11,9.38-17.39,5.7,19.78,6.29,38.32-1.76,56.7C277.41,233.42,271,240.57,264.94,248Zm-91.84-.21c4.93-1.77,10.18-.86,15.23-1.88,11-2.25,17.91-11.24,16-22.06-3.36,7.46-8.44,11.64-16.6,9.91A33.66,33.66,0,0,1,165,217.33c-2.3-3.87-1.85-7.2,2.15-10.35,10.63-8.39,9.38-22.15-2.52-28.69-8.84-4.86-17.88-4.62-26.44.79-10.63,6.73-11.29,19.54-1.65,27.67,4.87,4.11,5.3,6.93,1.65,12.3A35.33,35.33,0,0,1,124,231.23c-9.59,4.59-18.56,4.62-23.87-6.6-.08-.16-.56-.13-.85-.17-.27,12,6,19.44,17.6,21.56,4.73.85,9.64,0,14.24,1.74l.55.6.06-.44-.68,0c.22-6-4.67-8.46-8.36-11.75a82.62,82.62,0,0,0,7.38-4.21c1.65-1.15,2.59-1,4.25.13,10.22,7.2,25.3,7.14,35.62.07,1-.71,1.73-1.92,3.39-.77,2.6,1.8,5.43,3.28,8.14,4.88-3.88,3.28-8.49,5.74-8.3,11.65l-.68,0,.05.44Z"/><path class="c" d="M257.08,156.78c-8.48-6.6-17.75-11.18-28.77-11-13.85.18-20.3,11.44-13.45,23.45,1.38,2.43,3.14,4.65,4.73,7-4,.87-9.94-1.34-18.41-6.55-5.8-3.58-10.91-8.1-16.42-12.16-.84,1.85,1.11,3.37-.3,5.7-5.76-4.55-10.31-9.75-12.24-16.82-.76-2.78,1.34-4.24,3.82-4.92a30.59,30.59,0,0,0,9.14-3.9c6.18-4.17,8.95-10.64,7.39-17.21a15.92,15.92,0,0,0-13.08-12.18c-6.7-1-12.7,2.24-16.43,8.88-4.47,8-11.24,10-17.69,5.46-2-1.4-3.11-3.4-4.25-5.46-3.69-6.66-9.68-9.87-16.42-8.88a16,16,0,0,0-13.2,12.67c-1.34,6.52,1.68,13,8,17a29,29,0,0,0,8.24,3.49c4.11,1.07,5.43,3.48,3.6,7.47a35.18,35.18,0,0,1-11.41,14.17c-1.93-1.85.51-3.61-.51-5.56-9.38,7.81-19,15.26-30.72,19.12a5.29,5.29,0,0,1-4.07.09c2-3.22,4.27-6.27,5.86-9.64,4.83-10.21-1.23-20.32-12.55-21.11-11.82-.82-21.71,3.92-30.77,10.94l-.15.32.08-.38,6.8.31c-3,3.77-5.84,7-8.31,10.46a49.3,49.3,0,0,0-8.28,19.1c-.22,1.14-.18,2.61-1.39,3-1.53.53-2.34-1-3.21-1.88-5.23-5.51-8.2-12.37-11.35-20.18a85.49,85.49,0,0,0-4.51,30.09c.58,19.57,8.32,36,22.37,49.56a6.72,6.72,0,0,1,.95,1.66c-2.51.71-3.59-1.41-4.93-2.69C13.24,225.36,7,199.79,14.89,171.34c5.49-19.74,4.35-39.25,2.72-59-2.15-26.21-2.11-52.2,7.69-77.2A58.44,58.44,0,0,1,37.94,15.54c3.26-3.36,6.58-4.29,11.18-3.21a105.73,105.73,0,0,1,51.8,29.36c1.22,1.22,2,3.2,4.18,3.16a1.62,1.62,0,0,0,1,2,1.94,1.94,0,0,0,.22.4c0,.06.18,0,.28.05l-.55-.39c.09-.87,0-1.65-.95-2-1.17-3.59-3.68-6.24-6.31-8.76-.78-.75-2.5-.91-2.18-2.31s2.06-1.49,3.28-1.71c5.4-1,10.79-2.09,16.23-2.62,28.91-2.83,57.76-3.16,86.45,2.34,1.61.31,3.18.82,5.11,1.33-3.06,4-7.08,7-8.62,11.73-1,.36-1.07,1.16-.94,2l-.57.4c.1,0,.24,0,.3-.06a2.25,2.25,0,0,0,.21-.41,1.58,1.58,0,0,0,1-2c2.32-.12,3.24-2.16,4.54-3.53,14.29-15,31.8-24.15,51.76-29a10,10,0,0,1,10.37,2.83C277.19,26.42,282.16,40.74,284.91,56a189.48,189.48,0,0,1,.21,65.48c-.62,3.67.18,7.3,0,10.93-.8,15,1.88,29.43,5.27,44.08,6.1,26.35-.81,49.71-20.47,68.82-1.36,1.32-2.51,3.3-5,2.66,6.1-7.4,12.47-14.55,16.41-23.54,8-18.38,7.46-36.92,1.76-56.7-3.22,6.42-5.24,12.51-9.38,17.39-1.07,1.27-2.13,2.55-3.31,3.71-1.46,1.44-2.78,1.24-3.18-.87a53.72,53.72,0,0,0-6.17-16.76c-2.87-5-6.74-9.31-10.9-14.17l7-.32.23.33ZM244.87,51.61l.73.8c-2.35,3.81-5.21,7.42-5.87,12-.84,5.73-2.26,11.89,1.25,17,2.45,3.53,6.56,5.91,10.31,9.13,6.32-15.38,5.9-30.48,2-45.8-.75-2.9-2.37-2.2-4.08-1.44-8,3.59-15.19,8.4-20.28,15.69-2.24,3.22-3.52,2.41-5.28-.24-3.21-4.83-2.73-10.35,1.59-15,5.86-6.31,13.62-9.43,21.4-12.4,9.1-3.47,9.2-3.39,12.63,5.7,7.44,19.7,8.22,39.88,4.28,60.41-.38,2-1.86,4.21-.29,6.24a94.81,94.81,0,0,1,15.14,27.09,219.65,219.65,0,0,0,1.39-33.18,231.59,231.59,0,0,0-2.91-31.77c-2.49-14.7-6.5-28.84-14.75-41.52-2-3.09-4-4.21-7.72-3.21a109.45,109.45,0,0,0-27.63,11.27c-9,5.36-16.62,12.16-22,21.32-1.41,2.41-1.21,3.71,1.41,5a119.17,119.17,0,0,1,18,10.78c2.82,2,3.89,1.51,5.38-1.43C233,61.06,237.36,54.79,244.87,51.61ZM61.09,53.41c1.19-.95,1.85-.27,2.57.05,6.41,2.79,9.57,8.54,12.57,14.27,1.52,2.9,2.67,3.59,5.58,1.62A156.11,156.11,0,0,1,98.43,59.23c4-2,4.09-3.69,1.79-7.12C87.83,33.74,69.31,25.53,48.77,20.52c-2.26-.55-3,1.14-3.88,2.39a71.09,71.09,0,0,0-8.73,16.22C30,54.47,27.63,70.59,26.66,86.89c-.85,14.37-1.11,28.8.95,43.89a84.35,84.35,0,0,1,13.68-25.14,7.25,7.25,0,0,0,1.49-6.49c-2.64-12.8-3.62-25.66-1.9-38.7a95.93,95.93,0,0,1,8-28.69c.67-1.39,1.15-3.61,3.4-2.84,10.72,3.66,21.71,7,29.43,16,3.77,4.42,3.48,9.72.18,14.26-1.69,2.33-2.72,2.73-4.66.07-5.2-7.16-12.16-12.17-20.18-15.88-3-1.38-4.09-.56-4.8,2.37A77.57,77.57,0,0,0,49.74,65c.12,8.58.87,17.13,4.94,25.08C69.52,79,71,70.28,61.09,53.41Zm39.6,83.41c-2,.25-4.65.69-7.28.88-3.94.29-3.45,1.9-1.6,4.36a24.89,24.89,0,0,0,12.91,8.8c4.32,1.38,8.84.38,13.21,1.81,2.49.81,4.31-2.13,5.75-4.08s-.52-3.32-1.73-4.55C116.25,138.29,108.87,137.37,100.69,136.82ZM213.77,140c.18-1.25-.4-1.63-1.24-2-7.53-3.38-24.55.08-30.46,6.27-1.22,1.28-3.15,2.61-1.42,4.57s3.25,4.89,6.36,3.77c2.32-.83,4.55-.66,6.83-.84,7.46-.58,13.81-3.32,18.39-9.48C212.81,141.44,213.34,140.6,213.77,140Z"/><path class="c" d="M42.08,250.76a5.37,5.37,0,0,1,4,3.17C44.19,253.59,42.4,253.1,42.08,250.76Z"/><path class="c" d="M258,254a2.47,2.47,0,0,1,2.51-1.93C260.13,253.19,259.82,254.52,258,254Z"/><path class="c" d="M40,248.79a2.11,2.11,0,0,1,2.1,2C40.67,250.94,39.79,250.45,40,248.79Z"/><path class="c" d="M261.85,250.91a2.91,2.91,0,0,1,2.41-2.27C264.43,250.43,263.43,251,261.85,250.91Z"/><path class="a" d="M131.11,247.76c-4.6-1.74-9.51-.89-14.24-1.74-11.65-2.12-17.87-9.57-17.6-21.57.29.05.77,0,.85.18,5.31,11.22,14.28,11.19,23.87,6.6a35.33,35.33,0,0,0,14.23-12.18c3.65-5.37,3.22-8.19-1.65-12.3-9.64-8.13-9-20.94,1.65-27.67,8.56-5.41,17.6-5.65,26.44-.79,11.9,6.54,13.15,20.3,2.52,28.69-4,3.15-4.45,6.48-2.15,10.35a33.66,33.66,0,0,0,22.72,16.41c8.16,1.73,13.24-2.45,16.6-9.91,1.89,10.82-5,19.81-16,22.06-5.05,1-10.3.11-15.23,1.88l.07.11c-.2-5.91,4.41-8.37,8.29-11.65-2.71-1.6-5.54-3.08-8.14-4.88-1.66-1.15-2.35.06-3.39.77-10.32,7.07-25.4,7.13-35.62-.07-1.66-1.17-2.6-1.28-4.25-.13a82.62,82.62,0,0,1-7.38,4.21c3.69,3.29,8.58,5.71,8.36,11.75Z"/><path class="a" d="M131,247.88l.68,0-.06.44-.55-.6Z"/><path class="a" d="M173.1,247.77l-.57.59-.05-.44.68,0Z"/><path class="b" d="M244.87,51.61c-7.51,3.18-11.85,9.45-15.35,16.33-1.49,2.94-2.56,3.44-5.38,1.43a119.17,119.17,0,0,0-18-10.78c-2.62-1.24-2.82-2.54-1.41-5,5.37-9.16,13-16,22-21.32a109.45,109.45,0,0,1,27.63-11.27c3.69-1,5.71.12,7.72,3.21,8.25,12.68,12.26,26.82,14.75,41.52a231.59,231.59,0,0,1,2.91,31.77,219.65,219.65,0,0,1-1.39,33.18,94.81,94.81,0,0,0-15.14-27.09c-1.57-2-.09-4.23.29-6.24,3.94-20.53,3.16-40.71-4.28-60.41-3.43-9.09-3.53-9.17-12.63-5.7-7.78,3-15.54,6.09-21.4,12.4-4.32,4.66-4.8,10.18-1.59,15,1.76,2.65,3,3.46,5.28.24,5.09-7.29,12.25-12.1,20.28-15.69,1.71-.76,3.33-1.46,4.08,1.44,3.92,15.32,4.34,30.42-2,45.8-3.75-3.22-7.86-5.6-10.31-9.13-3.51-5.06-2.09-11.22-1.25-17,.66-4.58,3.52-8.19,5.86-12,.39-.39.77-.79,1.16-1.19C246,50.52,245.39,51,244.87,51.61Z"/><path class="b" d="M61.09,53.41C71,70.28,69.52,79,54.68,90.07c-4.07-7.95-4.82-16.5-4.94-25.08A77.57,77.57,0,0,1,52.3,45.74c.71-2.93,1.8-3.75,4.8-2.37,8,3.71,15,8.72,20.18,15.88,1.94,2.66,3,2.26,4.66-.07,3.3-4.54,3.59-9.84-.18-14.26-7.72-9-18.71-12.34-29.43-16-2.25-.77-2.73,1.45-3.4,2.84a95.93,95.93,0,0,0-8,28.69c-1.72,13-.74,25.9,1.9,38.7a7.25,7.25,0,0,1-1.49,6.49,84.35,84.35,0,0,0-13.68,25.14c-2.06-15.09-1.8-29.52-.95-43.89,1-16.3,3.37-32.42,9.5-47.76a71.09,71.09,0,0,1,8.73-16.22c.92-1.25,1.62-2.94,3.88-2.39,20.54,5,39.06,13.22,51.45,31.59,2.3,3.43,2.17,5.11-1.79,7.12A156.11,156.11,0,0,0,81.81,69.35c-2.91,2-4.06,1.28-5.58-1.62-3-5.73-6.16-11.48-12.57-14.27C62.94,53.14,62.28,52.46,61.09,53.41Z"/><path class="a" d="M100.69,136.82c8.18.55,15.56,1.47,21.26,7.22,1.21,1.23,3.27,2.48,1.73,4.55s-3.26,4.89-5.75,4.08c-4.37-1.43-8.89-.43-13.21-1.81a24.89,24.89,0,0,1-12.91-8.8c-1.85-2.46-2.34-4.07,1.6-4.36C96,137.51,98.66,137.07,100.69,136.82Z"/><path class="a" d="M213.77,140c-.43.64-1,1.48-1.54,2.28-4.58,6.16-10.93,8.9-18.39,9.48-2.28.18-4.51,0-6.83.84-3.11,1.12-4.69-1.87-6.36-3.77s.2-3.29,1.42-4.57C188,138,205,134.57,212.53,138,213.37,138.33,214,138.71,213.77,140Z"/><path class="a" d="M106.12,46.82a1.62,1.62,0,0,1-1-2h0c.94.39,1,1.17.95,2Z"/><path class="a" d="M198.14,46.88c-.13-.88,0-1.68.94-2l0,0a1.58,1.58,0,0,1-1,2Z"/><path class="a" d="M106.07,46.88l.55.39c-.1,0-.23,0-.28-.05a1.94,1.94,0,0,1-.22-.4Z"/><path class="a" d="M198.08,46.81a2.25,2.25,0,0,1-.21.41c-.06.06-.2,0-.3.06l.57-.4Z"/><path class="b" d="M47.05,156.71l-.08.38.15-.32Z"/><path class="b" d="M257.08,156.78l.3.26-.23-.33Z"/><path class="c" d="M244.87,51.61c.52-.66,1.08-1.09,1.88-.39-.39.4-.77.8-1.16,1.19Z"/></svg>